<svg id="Слой_1" xmlns="http://www.w3.org/2000/svg" width="264" height="88" viewBox="-173 353 264 88"><style>.st0{fill:#fff}</style><title>default-skin 2</title><path class="st0" d="M-145.7 423c0 .2-.1.4-.3.6l-1.2 1.2c-.2.2-.4.3-.6.3-.2 0-.4-.1-.6-.3l-2.6-2.6-2.6 2.6c-.2.2-.4.3-.6.3-.2 0-.4-.1-.6-.3l-1.2-1.2c-.2-.2-.3-.4-.3-.6 0-.2.1-.4.3-.6l2.6-2.6-2.6-2.6c-.2-.2-.3-.4-.3-.6s.1-.4.3-.6l1.2-1.2c.2-.2.4-.3.6-.3.2 0 .4.1.6.3l2.6 2.6 2.6-2.6c.2-.2.4-.3.6-.3.2 0 .4.1.6.3l1.2 1.2c.2.2.3.4.3.6s-.1.4-.3.6l-2.6 2.6 2.6 2.6c.2.1.3.3.3.6zm-5.4-46.4c0 .1 0 .1-.1.2l-3 3 1.3 1.3c.1.1.2.2.2.4s-.1.3-.2.4c-.1.1-.2.2-.4.2h-4c-.2 0-.3-.1-.4-.2-.1-.1-.2-.2-.2-.4v-4c0-.2.1-.3.2-.4.1-.1.2-.2.4-.2s.3.1.4.2l1.3 1.3 3-3c.1-.1.1-.1.2-.1s.1 0 .2.1l1 1c.1.1.1.1.1.2zm7-7.7v4c0 .2-.1.3-.2.4-.1.1-.2.2-.4.2s-.3-.1-.4-.2l-1.3-1.3-3 3c-.1.1-.1.1-.2.1s-.1 0-.2-.1l-1-1c-.1-.1-.1-.1-.1-.2s0-.1.1-.2l3-3-1.3-1.3c-.1-.1-.2-.2-.2-.4s.1-.3.2-.4c.1-.1.2-.2.4-.2h4c.2 0 .3.1.4.2.1.1.2.2.2.4zm88.5 13.1c0 .3-.1.6-.3.8-.2.2-.5.3-.8.3-.3 0-.6-.1-.8-.3l-3.1-3.1c-1.1.7-2.3 1.1-3.6 1.1-.9 0-1.7-.2-2.4-.5-.8-.3-1.4-.8-2-1.3s-1-1.2-1.3-2c-.3-.8-.5-1.6-.5-2.4 0-.9.2-1.7.5-2.4.3-.8.8-1.4 1.3-2s1.2-1 2-1.3c.8-.3 1.6-.5 2.4-.5s1.7.2 2.4.5c.8.3 1.4.8 2 1.3s1 1.2 1.3 2c.3.8.5 1.6.5 2.4 0 1.3-.4 2.5-1.1 3.6l3.1 3.1c.3.2.4.4.4.7zm-5.7-4.6c.8-.8 1.2-1.7 1.2-2.8 0-1.1-.4-2-1.2-2.8-.8-.8-1.7-1.2-2.8-1.2s-2 .4-2.8 1.2c-.8.8-1.2 1.7-1.2 2.8 0 1.1.4 2 1.2 2.8.8.8 1.7 1.2 2.8 1.2s2-.4 2.8-1.2zm0-3.1v.6c0 .1 0 .1-.1.2s-.1.1-.2.1h-2v2c0 .1 0 .1-.1.2s-.1.1-.2.1h-.6c-.1 0-.1 0-.2-.1s-.1-.1-.1-.2v-2h-2c-.1 0-.1 0-.2-.1s-.1-.1-.1-.2v-.6c0-.1 0-.1.1-.2s.1-.1.2-.1h2v-2c0-.1 0-.1.1-.2s.1-.1.2-.1h.6c.1 0 .1 0 .2.1s.1.1.1.2v2h2c.1 0 .1 0 .2.1s.1.1.1.2zm49.7 7.7c0 .3-.1.6-.3.8-.2.2-.5.3-.8.3-.3 0-.6-.1-.8-.3l-3.1-3.1c-1.1.7-2.3 1.1-3.6 1.1-.9 0-1.7-.2-2.4-.5-.8-.3-1.4-.8-2-1.3s-1-1.2-1.3-2c-.3-.8-.5-1.6-.5-2.4 0-.9.2-1.7.5-2.4.3-.8.8-1.4 1.3-2s1.2-1 2-1.3c.8-.3 1.6-.5 2.4-.5.9 0 1.7.2 2.4.5.8.3 1.4.8 2 1.3s1 1.2 1.3 2c.3.8.5 1.6.5 2.4 0 1.3-.4 2.5-1.1 3.6l3.1 3.1c.3.2.4.4.4.7zm-5.7-4.6c.8-.8 1.2-1.7 1.2-2.8 0-1.1-.4-2-1.2-2.8-.8-.8-1.7-1.2-2.8-1.2-1.1 0-2 .4-2.8 1.2-.8.8-1.2 1.7-1.2 2.8 0 1.1.4 2 1.2 2.8.8.8 1.7 1.2 2.8 1.2 1.1 0 2-.4 2.8-1.2zm0-3.1v.6c0 .1 0 .1-.1.2s-.1.1-.2.1h-5.1c-.1 0-.1 0-.2-.1s-.1-.1-.1-.2v-.6c0-.1 0-.1.1-.2s.1-.1.2-.1h5.1c.1 0 .1 0 .2.1s.1.1.1.2zm-89.7 1.5v4c0 .2-.1.3-.2.4-.1.1-.2.2-.4.2s-.3-.1-.4-.2l-1.3-1.3-3 3c-.1.1-.1.1-.2.1s-.1 0-.2-.1l-1-1c-.1-.1-.1-.1-.1-.2s0-.1.1-.2l3-3-1.3-1.3c-.1-.1-.2-.2-.2-.4s.1-.3.2-.4c.1-.1.2-.2.4-.2h4c.2 0 .3.1.4.2.1.1.2.2.2.4zm6.7-6c0 .1 0 .1-.1.2l-3 3 1.3 1.3c.1.1.2.2.2.4s-.1.3-.2.4c-.1.1-.2.2-.4.2h-4c-.2 0-.3-.1-.4-.2-.1-.1-.2-.2-.2-.4v-4c0-.2.1-.3.2-.4.1-.1.2-.2.4-.2s.3.1.4.2l1.3 1.3 3-3c.1-.1.1-.1.2-.1s.1 0 .2.1l1 1c.1 0 .1.1.1.2zm43.6 50c0 .3-.1.6-.3.8l-5.8 5.8c-.2.2-.5.3-.8.3-.3 0-.6-.1-.8-.3l-.7-.7c-.2-.2-.3-.5-.3-.8s.1-.6.3-.8l2.6-2.6h-6.3c-.3 0-.6-.1-.8-.3-.2-.2-.3-.5-.3-.8v-1.1c0-.3.1-.6.3-.8.2-.2.4-.3.8-.3h6.3l-2.6-2.6c-.2-.2-.3-.5-.3-.8 0-.3.1-.6.3-.8l.7-.7c.2-.2.5-.3.8-.3.3 0 .6.1.8.3l5.8 5.8c.2.1.3.3.3.7zm44.6-.6v1.1c0 .3-.1.6-.3.8-.2.2-.4.3-.8.3h-6.3l2.6 2.6c.2.2.3.5.3.8s-.1.6-.3.8l-.7.7c-.2.2-.5.3-.8.3-.3 0-.6-.1-.8-.3l-5.8-5.8c-.2-.2-.3-.5-.3-.8 0-.3.1-.6.3-.8l5.8-5.8c.2-.2.5-.3.8-.3.3 0 .6.1.8.3l.7.7c.2.2.3.5.3.8 0 .3-.1.6-.3.8l-2.6 2.6h6.3c.3 0 .6.1.8.3.2.3.3.6.3.9zm-90.9 1.1c.8 0 1.5.3 2 .8s.8 1.2.8 2-.3 1.5-.8 2c-.6.6-1.2.8-2 .8s-1.5-.3-2-.8c-.6-.6-.8-1.2-.8-2v-.3l-3.2-1.6c-.5.5-1.2.8-1.9.8-.8 0-1.5-.3-2-.8-.6-.6-.8-1.2-.8-2s.3-1.5.8-2c.6-.6 1.2-.8 2-.8s1.4.3 1.9.8l3.2-1.6v-.3c0-.8.3-1.5.8-2 .6-.6 1.2-.8 2-.8s1.5.3 2 .8.8 1.2.8 2-.3 1.5-.8 2c-.6.6-1.2.8-2 .8s-1.4-.3-1.9-.8l-3.2 1.6v.6l3.2 1.6c.5-.5 1.1-.8 1.9-.8z"/></svg>