<?xml version="1.0" standalone="no"?>
<!DOCTYPE svg PUBLIC "-//W3C//DTD SVG 20010904//EN"
 "http://www.w3.org/TR/2001/REC-SVG-20010904/DTD/svg10.dtd">
<svg version="1.0" xmlns="http://www.w3.org/2000/svg"
 width="697.000000pt" height="753.000000pt" viewBox="0 0 697.000000 753.000000"
 preserveAspectRatio="xMidYMid meet">

<g transform="translate(0.000000,753.000000) scale(0.100000,-0.100000)"
fill="#000000" stroke="none">
<path d="M4890 6719 c-215 -28 -383 -205 -397 -418 -13 -187 44 -322 276 -651
207 -293 279 -422 312 -555 6 -27 13 -52 15 -54 2 -2 27 20 56 49 29 28 89 76
134 106 74 49 139 82 518 263 291 139 433 274 481 458 67 258 -113 524 -384
566 -172 26 -358 -57 -451 -203 -31 -48 -48 -65 -37 -36 11 28 -14 152 -43
214 -40 86 -126 173 -212 217 -61 30 -88 37 -188 49 -14 1 -50 -1 -80 -5z"/>
<path d="M2371 5520 c-832 -81 -1532 -598 -1845 -1366 -103 -253 -146 -466
-153 -760 -6 -248 9 -398 62 -607 188 -748 781 -1359 1521 -1567 773 -218
1588 -8 2150 554 197 197 317 365 434 608 150 312 213 594 214 948 0 526 -163
982 -502 1402 l-54 67 -71 -36 c-87 -43 -195 -115 -260 -173 l-47 -42 61 -66
c134 -146 270 -384 339 -591 73 -218 84 -295 84 -561 0 -258 -10 -331 -75
-539 -41 -131 -154 -356 -236 -471 -84 -116 -241 -282 -348 -366 -600 -468
-1423 -501 -2053 -81 -388 259 -651 650 -749 1116 -24 114 -27 146 -27 341 0
195 3 227 27 341 133 630 568 1122 1168 1322 162 55 300 78 491 84 243 8 442
-22 651 -97 l87 -32 93 89 c51 49 131 117 178 152 46 35 85 67 87 71 4 11
-222 114 -328 150 -126 42 -272 76 -400 95 -135 19 -379 26 -499 15z"/>
<path d="M4546 5439 c-334 -30 -676 -163 -949 -371 -232 -177 -409 -394 -538
-663 -324 -670 -215 -1457 279 -2021 71 -81 226 -223 270 -248 13 -7 36 11
112 91 52 55 110 120 128 146 l32 45 -63 51 c-213 169 -392 424 -476 676 -259
782 180 1622 967 1850 174 51 407 71 577 50 l58 -8 -7 29 c-12 51 -96 216
-152 302 -63 94 -43 88 -238 71z"/>
<path d="M5510 5154 c-58 -31 -132 -75 -165 -99 -60 -43 -112 -92 -104 -98 2
-2 33 -16 68 -30 282 -120 552 -380 700 -675 47 -94 101 -250 126 -362 25
-112 30 -371 11 -495 -83 -542 -457 -990 -969 -1160 -159 -53 -237 -66 -418
-72 l-165 -5 -44 -72 c-24 -39 -80 -118 -123 -175 -43 -56 -76 -105 -73 -108
2 -3 51 -11 108 -20 150 -21 456 -13 602 16 742 150 1303 711 1457 1457 26
128 37 431 20 571 -65 532 -360 1009 -807 1309 -61 41 -113 74 -115 74 -2 0
-51 -25 -109 -56z"/>
</g>
</svg>
